<?xml version="1.0" encoding="UTF-8"?>
<!-- Generator: Adobe Illustrator 16.0.0, SVG Export Plug-In . SVG Version: 6.00 Build 0)  -->
<!DOCTYPE svg PUBLIC "-//W3C//DTD SVG 1.1//EN" "http://www.w3.org/Graphics/SVG/1.1/DTD/svg11.dtd">
<svg version="1.1" id="Layer_1" xmlns="http://www.w3.org/2000/svg" xmlns:xlink="http://www.w3.org/1999/xlink" x="0px" y="0px" width="360px" height="360px" viewBox="0 0 360 360" enable-background="new 0 0 360 360" xml:space="preserve">
<path fill="#EFEFEF" d="M36,0h288c19.883,0,36,16.118,36,36v288c0,19.882-16.117,36-36,36H36c-19.882,0-36-16.118-36-36V36  C0,16.118,16.118,0,36,0z"/>
<path fill="#1D3F66" d="M292.39,119.09c-1.08-4.11-5.609-8.14-11.229-6.19c-12.021,4.1-5.47,20.37,5.109,17.13  C290.23,128.81,293.83,124.49,292.39,119.09z M267.84,112.61c-15.05-1.87-14.399,19.65-0.14,17.57c-0.36-2.81-2.021-4.4-2.021-8.72  C265.68,117.36,266.83,115.92,267.84,112.61z M202.46,85.39h-26.92l-0.08,7.71h0.08l0.14,1.36h26.57l0.29-1.36L202.46,85.39z   M256.61,85.32l0.069,0.07v-0.07H256.61z M157.32,148.32c-0.86-8.35-4.61-17.64-9.79-23.62c-1.01-1.22-1.59-2.01-2.74-3.02  c-1.22-1.15-1.8-1.94-2.95-2.81c-9.72-7.56-20.59-12.31-34.2-10.58v-0.07c-13.46,1.72-21.1,6.76-29.45,15.55  c-6.84,7.2-11.95,20.3-10.51,33.77c2.52,23.4,23.18,43.05,49.97,40.17C140.4,195.26,159.98,174.24,157.32,148.32z M129.74,150.12  c-2.59,3.89-24.62,34.78-25.41,36.72c-1.37-0.79-16.78-16.27-17.35-17.42l6.12-5.98c2.8,1.58,5.4,6.19,9.5,9.36  c2.72-2.66,25.73-37.25,28.58-40.39c1.16,0.72,2.52,1.65,3.68,2.45c1.22,0.93,2.66,1.65,3.52,2.73L129.74,150.12z M157.32,148.32  c-0.86-8.35-4.61-17.64-9.79-23.62c-1.01-1.22-1.59-2.01-2.74-3.02c-1.22-1.15-1.8-1.94-2.95-2.81  c-9.72-7.56-20.59-12.31-34.2-10.58v-0.07c-13.46,1.72-21.1,6.76-29.45,15.55c-6.84,7.2-11.95,20.3-10.51,33.77  c2.52,23.4,23.18,43.05,49.97,40.17C140.4,195.26,159.98,174.24,157.32,148.32z M129.74,150.12c-2.59,3.89-24.62,34.78-25.41,36.72  c-1.37-0.79-16.78-16.27-17.35-17.42l6.12-5.98c2.8,1.58,5.4,6.19,9.5,9.36c2.72-2.66,25.73-37.25,28.58-40.39  c1.16,0.72,2.52,1.65,3.68,2.45c1.22,0.93,2.66,1.65,3.52,2.73L129.74,150.12z M157.32,148.32c-0.86-8.35-4.61-17.64-9.79-23.62  c-1.01-1.22-1.59-2.01-2.74-3.02c-1.22-1.15-1.8-1.94-2.95-2.81c-9.72-7.56-20.59-12.31-34.2-10.58v-0.07  c-13.46,1.72-21.1,6.76-29.45,15.55c-6.84,7.2-11.95,20.3-10.51,33.77c2.52,23.4,23.18,43.05,49.97,40.17  C140.4,195.26,159.98,174.24,157.32,148.32z M129.74,150.12c-2.59,3.89-24.62,34.78-25.41,36.72c-1.37-0.79-16.78-16.27-17.35-17.42  l6.12-5.98c2.8,1.58,5.4,6.19,9.5,9.36c2.72-2.66,25.73-37.25,28.58-40.39c1.16,0.72,2.52,1.65,3.68,2.45  c1.22,0.93,2.66,1.65,3.52,2.73L129.74,150.12z M157.32,148.32c-0.86-8.35-4.61-17.64-9.79-23.62c-1.01-1.22-1.59-2.01-2.74-3.02  c-1.22-1.15-1.8-1.94-2.95-2.81c-9.72-7.56-20.59-12.31-34.2-10.58v-0.07c-13.46,1.72-21.1,6.76-29.45,15.55  c-6.84,7.2-11.95,20.3-10.51,33.77c2.52,23.4,23.18,43.05,49.97,40.17C140.4,195.26,159.98,174.24,157.32,148.32z M129.74,150.12  c-2.59,3.89-24.62,34.78-25.41,36.72c-1.37-0.79-16.78-16.27-17.35-17.42l6.12-5.98c2.8,1.58,5.4,6.19,9.5,9.36  c2.72-2.66,25.73-37.25,28.58-40.39c1.16,0.72,2.52,1.65,3.68,2.45c1.22,0.93,2.66,1.65,3.52,2.73L129.74,150.12z M157.32,148.32  c-0.86-8.35-4.61-17.64-9.79-23.62c-1.01-1.22-1.59-2.01-2.74-3.02c-1.22-1.15-1.8-1.94-2.95-2.81  c-9.72-7.56-20.59-12.31-34.2-10.58v-0.07c-13.46,1.72-21.1,6.76-29.45,15.55c-6.84,7.2-11.95,20.3-10.51,33.77  c2.52,23.4,23.18,43.05,49.97,40.17C140.4,195.26,159.98,174.24,157.32,148.32z M129.74,150.12c-2.59,3.89-24.62,34.78-25.41,36.72  c-1.37-0.79-16.78-16.27-17.35-17.42l6.12-5.98c2.8,1.58,5.4,6.19,9.5,9.36c2.72-2.66,25.73-37.25,28.58-40.39  c1.16,0.72,2.52,1.65,3.68,2.45c1.22,0.93,2.66,1.65,3.52,2.73L129.74,150.12z M157.32,148.32c-0.86-8.35-4.61-17.64-9.79-23.62  c-1.01-1.22-1.59-2.01-2.74-3.02c-1.22-1.15-1.8-1.94-2.95-2.81c-9.72-7.56-20.59-12.31-34.2-10.58v-0.07  c-13.46,1.72-21.1,6.76-29.45,15.55c-6.84,7.2-11.95,20.3-10.51,33.77c2.52,23.4,23.18,43.05,49.97,40.17  C140.4,195.26,159.98,174.24,157.32,148.32z M129.74,150.12c-2.59,3.89-24.62,34.78-25.41,36.72c-1.37-0.79-16.78-16.27-17.35-17.42  l6.12-5.98c2.8,1.58,5.4,6.19,9.5,9.36c2.72-2.66,25.73-37.25,28.58-40.39c1.16,0.72,2.52,1.65,3.68,2.45  c1.22,0.93,2.66,1.65,3.52,2.73L129.74,150.12z M157.32,148.32c-0.86-8.35-4.61-17.64-9.79-23.62c-1.01-1.22-1.59-2.01-2.74-3.02  c-1.22-1.15-1.8-1.94-2.95-2.81c-9.72-7.56-20.59-12.31-34.2-10.58v-0.07c-13.46,1.72-21.1,6.76-29.45,15.55  c-6.84,7.2-11.95,20.3-10.51,33.77c2.52,23.4,23.18,43.05,49.97,40.17C140.4,195.26,159.98,174.24,157.32,148.32z M129.74,150.12  c-2.59,3.89-24.62,34.78-25.41,36.72c-1.37-0.79-16.78-16.27-17.35-17.42l6.12-5.98c2.8,1.58,5.4,6.19,9.5,9.36  c2.72-2.66,25.73-37.25,28.58-40.39c1.16,0.72,2.52,1.65,3.68,2.45c1.22,0.93,2.66,1.65,3.52,2.73L129.74,150.12z M157.32,148.32  c-0.86-8.35-4.61-17.64-9.79-23.62c-1.01-1.22-1.59-2.01-2.74-3.02c-1.22-1.15-1.8-1.94-2.95-2.81  c-9.72-7.56-20.59-12.31-34.2-10.58v-0.07c-13.46,1.72-21.1,6.76-29.45,15.55c-6.84,7.2-11.95,20.3-10.51,33.77  c2.52,23.4,23.18,43.05,49.97,40.17C140.4,195.26,159.98,174.24,157.32,148.32z M129.74,150.12c-2.59,3.89-24.62,34.78-25.41,36.72  c-1.37-0.79-16.78-16.27-17.35-17.42l6.12-5.98c2.8,1.58,5.4,6.19,9.5,9.36c2.72-2.66,25.73-37.25,28.58-40.39  c1.16,0.72,2.52,1.65,3.68,2.45c1.22,0.93,2.66,1.65,3.52,2.73L129.74,150.12z M157.32,148.32c-0.86-8.35-4.61-17.64-9.79-23.62  c-1.01-1.22-1.59-2.01-2.74-3.02c-1.22-1.15-1.8-1.94-2.95-2.81c-9.72-7.56-20.59-12.31-34.2-10.58v-0.07  c-13.46,1.72-21.1,6.76-29.45,15.55c-6.84,7.2-11.95,20.3-10.51,33.77c2.52,23.4,23.18,43.05,49.97,40.17  C140.4,195.26,159.98,174.24,157.32,148.32z M129.74,150.12c-2.59,3.89-24.62,34.78-25.41,36.72c-1.37-0.79-16.78-16.27-17.35-17.42  l6.12-5.98c2.8,1.58,5.4,6.19,9.5,9.36c2.72-2.66,25.73-37.25,28.58-40.39c1.16,0.72,2.52,1.65,3.68,2.45  c1.22,0.93,2.66,1.65,3.52,2.73L129.74,150.12z M157.32,148.32c-0.86-8.35-4.61-17.64-9.79-23.62c-1.01-1.22-1.59-2.01-2.74-3.02  c-1.22-1.15-1.8-1.94-2.95-2.81c-9.72-7.56-20.59-12.31-34.2-10.58v-0.07c-13.46,1.72-21.1,6.76-29.45,15.55  c-6.84,7.2-11.95,20.3-10.51,33.77c2.52,23.4,23.18,43.05,49.97,40.17C140.4,195.26,159.98,174.24,157.32,148.32z M129.74,150.12  c-2.59,3.89-24.62,34.78-25.41,36.72c-1.37-0.79-16.78-16.27-17.35-17.42l6.12-5.98c2.8,1.58,5.4,6.19,9.5,9.36  c2.72-2.66,25.73-37.25,28.58-40.39c1.16,0.72,2.52,1.65,3.68,2.45c1.22,0.93,2.66,1.65,3.52,2.73L129.74,150.12z M157.32,148.32  c-0.86-8.35-4.61-17.64-9.79-23.62c-1.01-1.22-1.59-2.01-2.74-3.02c-1.22-1.15-1.8-1.94-2.95-2.81  c-9.72-7.56-20.59-12.31-34.2-10.58v-0.07c-13.46,1.72-21.1,6.76-29.45,15.55c-6.84,7.2-11.95,20.3-10.51,33.77  c2.52,23.4,23.18,43.05,49.97,40.17C140.4,195.26,159.98,174.24,157.32,148.32z M129.74,150.12c-2.59,3.89-24.62,34.78-25.41,36.72  c-1.37-0.79-16.78-16.27-17.35-17.42l6.12-5.98c2.8,1.58,5.4,6.19,9.5,9.36c2.72-2.66,25.73-37.25,28.58-40.39  c1.16,0.72,2.52,1.65,3.68,2.45c1.22,0.93,2.66,1.65,3.52,2.73L129.74,150.12z M157.32,148.32c-0.86-8.35-4.61-17.64-9.79-23.62  c-1.01-1.22-1.59-2.01-2.74-3.02c-1.22-1.15-1.8-1.94-2.95-2.81c-9.72-7.56-20.59-12.31-34.2-10.58v-0.07  c-13.46,1.72-21.1,6.76-29.45,15.55c-6.84,7.2-11.95,20.3-10.51,33.77c2.52,23.4,23.18,43.05,49.97,40.17  C140.4,195.26,159.98,174.24,157.32,148.32z M129.74,150.12c-2.59,3.89-24.62,34.78-25.41,36.72c-1.37-0.79-16.78-16.27-17.35-17.42  l6.12-5.98c2.8,1.58,5.4,6.19,9.5,9.36c2.72-2.66,25.73-37.25,28.58-40.39c1.16,0.72,2.52,1.65,3.68,2.45  c1.22,0.93,2.66,1.65,3.52,2.73L129.74,150.12z M157.32,148.32c-0.86-8.35-4.61-17.64-9.79-23.62c-1.01-1.22-1.59-2.01-2.74-3.02  c-1.22-1.15-1.8-1.94-2.95-2.81c-9.72-7.56-20.59-12.31-34.2-10.58v-0.07c-13.46,1.72-21.1,6.76-29.45,15.55  c-6.84,7.2-11.95,20.3-10.51,33.77c2.52,23.4,23.18,43.05,49.97,40.17C140.4,195.26,159.98,174.24,157.32,148.32z M129.74,150.12  c-2.59,3.89-24.62,34.78-25.41,36.72c-1.37-0.79-16.78-16.27-17.35-17.42l6.12-5.98c2.8,1.58,5.4,6.19,9.5,9.36  c2.72-2.66,25.73-37.25,28.58-40.39c1.16,0.72,2.52,1.65,3.68,2.45c1.22,0.93,2.66,1.65,3.52,2.73L129.74,150.12z M157.32,148.32  c-0.86-8.35-4.61-17.64-9.79-23.62c-1.01-1.22-1.59-2.01-2.74-3.02c-1.22-1.15-1.8-1.94-2.95-2.81  c-9.72-7.56-20.59-12.31-34.2-10.58v-0.07c-13.46,1.72-21.1,6.76-29.45,15.55c-6.84,7.2-11.95,20.3-10.51,33.77  c2.52,23.4,23.18,43.05,49.97,40.17C140.4,195.26,159.98,174.24,157.32,148.32z M129.74,150.12c-2.59,3.89-24.62,34.78-25.41,36.72  c-1.37-0.79-16.78-16.27-17.35-17.42l6.12-5.98c2.8,1.58,5.4,6.19,9.5,9.36c2.72-2.66,25.73-37.25,28.58-40.39  c1.16,0.72,2.52,1.65,3.68,2.45c1.22,0.93,2.66,1.65,3.52,2.73L129.74,150.12z M88.49,94.68c-19.87,8.06-34.35,25.7-38.23,46.94  c-0.36,2.02-0.36,5.48-0.94,7.06h0.07v9.58c0.36,0.79,1.44,8.71,2.59,12.81c2.09,7.06,6.05,14.76,10.37,20.31  c0.94,1.22,2.52,3.311,3.46,4.17c7.34,7.2,12.6,11.67,22.89,15.91c40.4,16.78,86.91-13.24,86.76-58.89  C175.32,108.43,130.25,77.69,88.49,94.68z M155.09,186.19c-1.23,1.439-1.8,2.02-3.1,3.39c-2.45,2.52-3.96,4.1-6.98,6.479  c-7.99,6.33-18.51,10.08-29.45,10.87c-30.74,2.16-55.58-22.39-57.1-50.91c-1.58-30.02,20.67-54.93,51.2-56.95  c30.31-2.01,55.15,22.54,56.73,50.83C167.11,163.01,162.94,176.26,155.09,186.19z M147.53,124.7c-1.01-1.22-1.59-2.01-2.74-3.02  c-1.22-1.15-1.8-1.94-2.95-2.81c-9.72-7.56-20.59-12.31-34.2-10.58v-0.07c-13.46,1.72-21.1,6.76-29.45,15.55  c-6.84,7.2-11.95,20.3-10.51,33.77c2.52,23.4,23.18,43.05,49.97,40.17c22.75-2.45,42.33-23.47,39.67-49.39  C156.46,139.97,152.71,130.68,147.53,124.7z M129.74,150.12c-2.59,3.89-24.62,34.78-25.41,36.72c-1.37-0.79-16.78-16.27-17.35-17.42  l6.12-5.98c2.8,1.58,5.4,6.19,9.5,9.36c2.72-2.66,25.73-37.25,28.58-40.39c1.16,0.72,2.52,1.65,3.68,2.45  c1.22,0.93,2.66,1.65,3.52,2.73L129.74,150.12z M157.32,148.32c-0.86-8.35-4.61-17.64-9.79-23.62c-1.01-1.22-1.59-2.01-2.74-3.02  c-1.22-1.15-1.8-1.94-2.95-2.81c-9.72-7.56-20.59-12.31-34.2-10.58v-0.07c-13.46,1.72-21.1,6.76-29.45,15.55  c-6.84,7.2-11.95,20.3-10.51,33.77c2.52,23.4,23.18,43.05,49.97,40.17C140.4,195.26,159.98,174.24,157.32,148.32z M129.74,150.12  c-2.59,3.89-24.62,34.78-25.41,36.72c-1.37-0.79-16.78-16.27-17.35-17.42l6.12-5.98c2.8,1.58,5.4,6.19,9.5,9.36  c2.72-2.66,25.73-37.25,28.58-40.39c1.16,0.72,2.52,1.65,3.68,2.45c1.22,0.93,2.66,1.65,3.52,2.73L129.74,150.12z M157.32,148.32  c-0.86-8.35-4.61-17.64-9.79-23.62c-1.01-1.22-1.59-2.01-2.74-3.02c-1.22-1.15-1.8-1.94-2.95-2.81  c-9.72-7.56-20.59-12.31-34.2-10.58v-0.07c-13.46,1.72-21.1,6.76-29.45,15.55c-6.84,7.2-11.95,20.3-10.51,33.77  c2.52,23.4,23.18,43.05,49.97,40.17C140.4,195.26,159.98,174.24,157.32,148.32z M129.74,150.12c-2.59,3.89-24.62,34.78-25.41,36.72  c-1.37-0.79-16.78-16.27-17.35-17.42l6.12-5.98c2.8,1.58,5.4,6.19,9.5,9.36c2.72-2.66,25.73-37.25,28.58-40.39  c1.16,0.72,2.52,1.65,3.68,2.45c1.22,0.93,2.66,1.65,3.52,2.73L129.74,150.12z M157.32,148.32c-0.86-8.35-4.61-17.64-9.79-23.62  c-1.01-1.22-1.59-2.01-2.74-3.02c-1.22-1.15-1.8-1.94-2.95-2.81c-9.72-7.56-20.59-12.31-34.2-10.58v-0.07  c-13.46,1.72-21.1,6.76-29.45,15.55c-6.84,7.2-11.95,20.3-10.51,33.77c2.52,23.4,23.18,43.05,49.97,40.17  C140.4,195.26,159.98,174.24,157.32,148.32z M129.74,150.12c-2.59,3.89-24.62,34.78-25.41,36.72c-1.37-0.79-16.78-16.27-17.35-17.42  l6.12-5.98c2.8,1.58,5.4,6.19,9.5,9.36c2.72-2.66,25.73-37.25,28.58-40.39c1.16,0.72,2.52,1.65,3.68,2.45  c1.22,0.93,2.66,1.65,3.52,2.73L129.74,150.12z M157.32,148.32c-0.86-8.35-4.61-17.64-9.79-23.62c-1.01-1.22-1.59-2.01-2.74-3.02  c-1.22-1.15-1.8-1.94-2.95-2.81c-9.72-7.56-20.59-12.31-34.2-10.58v-0.07c-13.46,1.72-21.1,6.76-29.45,15.55  c-6.84,7.2-11.95,20.3-10.51,33.77c2.52,23.4,23.18,43.05,49.97,40.17C140.4,195.26,159.98,174.24,157.32,148.32z M129.74,150.12  c-2.59,3.89-24.62,34.78-25.41,36.72c-1.37-0.79-16.78-16.27-17.35-17.42l6.12-5.98c2.8,1.58,5.4,6.19,9.5,9.36  c2.72-2.66,25.73-37.25,28.58-40.39c1.16,0.72,2.52,1.65,3.68,2.45c1.22,0.93,2.66,1.65,3.52,2.73L129.74,150.12z M157.32,148.32  c-0.86-8.35-4.61-17.64-9.79-23.62c-1.01-1.22-1.59-2.01-2.74-3.02c-1.22-1.15-1.8-1.94-2.95-2.81  c-9.72-7.56-20.59-12.31-34.2-10.58v-0.07c-13.46,1.72-21.1,6.76-29.45,15.55c-6.84,7.2-11.95,20.3-10.51,33.77  c2.52,23.4,23.18,43.05,49.97,40.17C140.4,195.26,159.98,174.24,157.32,148.32z M129.74,150.12c-2.59,3.89-24.62,34.78-25.41,36.72  c-1.37-0.79-16.78-16.27-17.35-17.42l6.12-5.98c2.8,1.58,5.4,6.19,9.5,9.36c2.72-2.66,25.73-37.25,28.58-40.39  c1.16,0.72,2.52,1.65,3.68,2.45c1.22,0.93,2.66,1.65,3.52,2.73L129.74,150.12z M157.32,148.32c-0.86-8.35-4.61-17.64-9.79-23.62  c-1.01-1.22-1.59-2.01-2.74-3.02c-1.22-1.15-1.8-1.94-2.95-2.81c-9.72-7.56-20.59-12.31-34.2-10.58v-0.07  c-13.46,1.72-21.1,6.76-29.45,15.55c-6.84,7.2-11.95,20.3-10.51,33.77c2.52,23.4,23.18,43.05,49.97,40.17  C140.4,195.26,159.98,174.24,157.32,148.32z M129.74,150.12c-2.59,3.89-24.62,34.78-25.41,36.72c-1.37-0.79-16.78-16.27-17.35-17.42  l6.12-5.98c2.8,1.58,5.4,6.19,9.5,9.36c2.72-2.66,25.73-37.25,28.58-40.39c1.16,0.72,2.52,1.65,3.68,2.45  c1.22,0.93,2.66,1.65,3.52,2.73L129.74,150.12z M157.32,148.32c-0.86-8.35-4.61-17.64-9.79-23.62c-1.01-1.22-1.59-2.01-2.74-3.02  c-1.22-1.15-1.8-1.94-2.95-2.81c-9.72-7.56-20.59-12.31-34.2-10.58v-0.07c-13.46,1.72-21.1,6.76-29.45,15.55  c-6.84,7.2-11.95,20.3-10.51,33.77c2.52,23.4,23.18,43.05,49.97,40.17C140.4,195.26,159.98,174.24,157.32,148.32z M129.74,150.12  c-2.59,3.89-24.62,34.78-25.41,36.72c-1.37-0.79-16.78-16.27-17.35-17.42l6.12-5.98c2.8,1.58,5.4,6.19,9.5,9.36  c2.72-2.66,25.73-37.25,28.58-40.39c1.16,0.72,2.52,1.65,3.68,2.45c1.22,0.93,2.66,1.65,3.52,2.73L129.74,150.12z M157.32,148.32  c-0.86-8.35-4.61-17.64-9.79-23.62c-1.01-1.22-1.59-2.01-2.74-3.02c-1.22-1.15-1.8-1.94-2.95-2.81  c-9.72-7.56-20.59-12.31-34.2-10.58v-0.07c-13.46,1.72-21.1,6.76-29.45,15.55c-6.84,7.2-11.95,20.3-10.51,33.77  c2.52,23.4,23.18,43.05,49.97,40.17C140.4,195.26,159.98,174.24,157.32,148.32z M129.74,150.12c-2.59,3.89-24.62,34.78-25.41,36.72  c-1.37-0.79-16.78-16.27-17.35-17.42l6.12-5.98c2.8,1.58,5.4,6.19,9.5,9.36c2.72-2.66,25.73-37.25,28.58-40.39  c1.16,0.72,2.52,1.65,3.68,2.45c1.22,0.93,2.66,1.65,3.52,2.73L129.74,150.12z M157.32,148.32c-0.86-8.35-4.61-17.64-9.79-23.62  c-1.01-1.22-1.59-2.01-2.74-3.02c-1.22-1.15-1.8-1.94-2.95-2.81c-9.72-7.56-20.59-12.31-34.2-10.58v-0.07  c-13.46,1.72-21.1,6.76-29.45,15.55c-6.84,7.2-11.95,20.3-10.51,33.77c2.52,23.4,23.18,43.05,49.97,40.17  C140.4,195.26,159.98,174.24,157.32,148.32z M129.74,150.12c-2.59,3.89-24.62,34.78-25.41,36.72c-1.37-0.79-16.78-16.27-17.35-17.42  l6.12-5.98c2.8,1.58,5.4,6.19,9.5,9.36c2.72-2.66,25.73-37.25,28.58-40.39c1.16,0.72,2.52,1.65,3.68,2.45  c1.22,0.93,2.66,1.65,3.52,2.73L129.74,150.12z M157.32,148.32c-0.86-8.35-4.61-17.64-9.79-23.62c-1.01-1.22-1.59-2.01-2.74-3.02  c-1.22-1.15-1.8-1.94-2.95-2.81c-9.72-7.56-20.59-12.31-34.2-10.58v-0.07c-13.46,1.72-21.1,6.76-29.45,15.55  c-6.84,7.2-11.95,20.3-10.51,33.77c2.52,23.4,23.18,43.05,49.97,40.17C140.4,195.26,159.98,174.24,157.32,148.32z M129.74,150.12  c-2.59,3.89-24.62,34.78-25.41,36.72c-1.37-0.79-16.78-16.27-17.35-17.42l6.12-5.98c2.8,1.58,5.4,6.19,9.5,9.36  c2.72-2.66,25.73-37.25,28.58-40.39c1.16,0.72,2.52,1.65,3.68,2.45c1.22,0.93,2.66,1.65,3.52,2.73L129.74,150.12z M310.32,193.25  c-2.16-20.31-21.46-38.67-44.78-35.43c-23.19,3.17-38.38,23.121-35.64,45.22c2.59,20.81,21.239,37.729,45.14,35.21  C295.78,236.09,312.84,216.79,310.32,193.25z M265.75,189.72c0.72,5.4,6.84,2.23,12.46,6.48c8.85,6.7,6.19,20.3-3.53,23.47  l-0.069,9.94h-8.86v-9.721c-4.97-3.029-8.64-5.04-9-12.819c13.18,0,6.91-0.29,10.3,3.1c3.09,3.09,7.99,0.72,7.63-3.39  c-0.5-5.761-7.63-3.16-12.46-6.761c-3.16-2.31-6.479-7.279-5.319-13.399c1.22-6.48,5.25-8.06,8.779-10.36v-0.08l0.141-9.72h8.859  v9.94c5.04,1.66,8.5,5.831,9,12.6h-8.64l-1.73-3.24c-0.649-0.72-1.939-1.3-3.239-1.22C267.48,184.61,265.39,186.84,265.75,189.72z   M265.25,264.74c-0.72-5.76-2.59-10.58-5.04-14.9c-3.6-6.189-2.95-2.95-12.53-7.78c-4.97-2.439-8.42-5.47-11.88-8.489  c-2.59-2.311-1.37-3.24-6.12-3.75c-3.46-0.36-6.34-0.28-9.79,0.08v0.069c-20.449,2.45-38.09,21.601-34.989,45.36  c2.659,20.45,21.31,37.939,45.21,34.99C250.63,307.73,268.34,288.86,265.25,264.74z M238.32,281.95c-0.65,2.88-1.73,4.54-3.38,6.189  c-6.41,6.63-5.19-1.359-5.4,13.471h-8.86v-9.36c-0.43-1.44-8.569-2.74-9-13.18h9c0.86,7.27,10.44,4.83,8.71-1.37  c-0.79-2.73-2.88-2.95-6.05-3.311c-14.18-1.729-15.62-21.96-2.729-25.92l0.069-9.859l8.931,0.069l0.069,9.79  c4.61,1.37,9.07,6.271,8.86,12.53h-8.79c-3.89-12.1-16.41,3.24-3.45,4.61C234.36,266.47,240.19,273.89,238.32,281.95z M126,283.9  v-40.61l-27-0.15v40.32c0,5.19-0.72,14.98,1.15,19.16c4.97,10.87,19.87,10.649,24.63,0.21C126.72,298.58,126,289.15,126,283.9z   M112.68,225c-5.04,0-9.07-0.94-13.75-1.22L99,223.85v10.221h26.86l0.07-10.29C121.46,224.14,117.43,225,112.68,225z M292.39,119.09  c-1.08-4.11-5.609-8.14-11.229-6.19c-12.021,4.1-5.47,20.37,5.109,17.13C290.23,128.81,293.83,124.49,292.39,119.09z M202.46,85.39  h-26.92l-0.08,7.71h0.08l0.14,1.36h26.57l0.29-1.36L202.46,85.39z M267.84,112.61c-15.05-1.87-14.399,19.65-0.14,17.57  c-0.36-2.81-2.021-4.4-2.021-8.72C265.68,117.36,266.83,115.92,267.84,112.61z M202.46,85.39h-26.92l-0.08,7.71h0.08l0.14,1.36  h26.57l0.29-1.36L202.46,85.39z M202.46,85.39h-26.92l-0.08,7.71h0.08l0.14,1.36h26.57l0.29-1.36L202.46,85.39z M202.46,85.39  h-26.92l-0.08,7.71h0.08l0.14,1.36h26.57l0.29-1.36L202.46,85.39z M202.46,85.39h-26.92l-0.08,7.71h0.08l0.14,1.36h26.57l0.29-1.36  L202.46,85.39z M202.46,85.39h-26.92l-0.08,7.71h0.08l0.14,1.36h26.57l0.29-1.36L202.46,85.39z M202.46,85.39h-26.92l-0.08,7.71  h0.08l0.14,1.36h26.57l0.29-1.36L202.46,85.39z M202.46,85.39h-26.92l-0.08,7.71h0.08l0.14,1.36h26.57l0.29-1.36L202.46,85.39z   M267.84,112.61c-15.05-1.87-14.399,19.65-0.14,17.57c-0.36-2.81-2.021-4.4-2.021-8.72C265.68,117.36,266.83,115.92,267.84,112.61z   M292.39,119.09c-1.08-4.11-5.609-8.14-11.229-6.19c-12.021,4.1-5.47,20.37,5.109,17.13C290.23,128.81,293.83,124.49,292.39,119.09z   M292.39,119.09c-1.08-4.11-5.609-8.14-11.229-6.19c-12.021,4.1-5.47,20.37,5.109,17.13C290.23,128.81,293.83,124.49,292.39,119.09z   M267.84,112.61c-15.05-1.87-14.399,19.65-0.14,17.57c-0.36-2.81-2.021-4.4-2.021-8.72C265.68,117.36,266.83,115.92,267.84,112.61z   M202.46,85.39h-26.92l-0.08,7.71h0.08l0.14,1.36h26.57l0.29-1.36L202.46,85.39z M202.46,85.39h-26.92l-0.08,7.71h0.08l0.14,1.36  h26.57l0.29-1.36L202.46,85.39z M267.84,112.61c-15.05-1.87-14.399,19.65-0.14,17.57c-0.36-2.81-2.021-4.4-2.021-8.72  C265.68,117.36,266.83,115.92,267.84,112.61z M292.39,119.09c-1.08-4.11-5.609-8.14-11.229-6.19c-12.021,4.1-5.47,20.37,5.109,17.13  C290.23,128.81,293.83,124.49,292.39,119.09z M292.39,119.09c-1.08-4.11-5.609-8.14-11.229-6.19c-12.021,4.1-5.47,20.37,5.109,17.13  C290.23,128.81,293.83,124.49,292.39,119.09z M267.7,130.18c-0.36-2.81-2.021-4.4-2.021-8.72c0-4.1,1.15-5.54,2.16-8.85  C252.79,110.74,253.44,132.26,267.7,130.18z M202.46,85.39h-26.92l-0.08,7.71h0.08l0.14,1.36h26.57l0.29-1.36L202.46,85.39z   M310.75,131.83l-0.07-78.62c-0.5-2.88-1.51-2.59-3.31-3.89H160.78c-4.11,3.02-3.24,3.6-3.24,9.58v12.67c0,8.49-0.08,16.99,0,25.49  c3.38,2.01,8.56,7.92,11.37,11.23c4.68,5.47-0.21,4.17,15.27,4.17c0.641,1.8,0.5,6.92,0.28,8.93l-7.12,0.07  c0.5,1.23,3.24,8.72,4.101,9h57.1l0.14,9h-55.3l1.08,9h114.41C312.19,148.46,310.75,149.47,310.75,131.83z M265.75,58.32h35.86v9  h-36L265.75,58.32z M229.61,58.32h9v9h-9V58.32z M211.54,121.39h-17.86c-0.22-2.09-0.43-6.98,0.141-8.93l17.79,0.08L211.54,121.39z   M211.61,103.39l-45.07-0.07v-0.07l0.14-26.93l44.93,0.07V103.39z M166.54,67.25l0.14-8.93h53.86l0.07,9L166.54,67.25z   M238.68,119.95l-0.14,1.44l-17.86-0.07v-8.86h18V119.95z M276.05,137.66c-2.16-0.93-2.31-0.07-4.47,0.72  c-15.48,5.55-29.23-11.16-22.03-25.12c2.45-4.68,6.84-8.64,13.83-9.65v0.07c3.811-0.58,6.69,0.36,9.86,1.58  c3.02,1.23,2.74-1.29,9.069-1.72c7.631-0.58,13.181,3.52,15.841,7.41C308.16,125.57,294.41,145.15,276.05,137.66z M301.75,85.39  h-43.63l-1.44-0.07v-8.93h45.07V85.39z M281.16,112.9c-12.021,4.1-5.47,20.37,5.109,17.13c3.961-1.22,7.561-5.54,6.12-10.94  C291.31,114.98,286.78,110.95,281.16,112.9z M267.7,130.18c-0.36-2.81-2.021-4.4-2.021-8.72c0-4.1,1.15-5.54,2.16-8.85  C252.79,110.74,253.44,132.26,267.7,130.18z M175.68,94.46h26.57l0.29-1.36l-0.08-7.71h-26.92l-0.08,7.71h0.08L175.68,94.46z   M202.46,85.39h-26.92l-0.08,7.71h0.08l0.14,1.36h26.57l0.29-1.36L202.46,85.39z M267.84,112.61  c-15.05-1.87-14.399,19.65-0.14,17.57c-0.36-2.81-2.021-4.4-2.021-8.72C265.68,117.36,266.83,115.92,267.84,112.61z M292.39,119.09  c-1.08-4.11-5.609-8.14-11.229-6.19c-12.021,4.1-5.47,20.37,5.109,17.13C290.23,128.81,293.83,124.49,292.39,119.09z M292.39,119.09  c-1.08-4.11-5.609-8.14-11.229-6.19c-12.021,4.1-5.47,20.37,5.109,17.13C290.23,128.81,293.83,124.49,292.39,119.09z M267.84,112.61  c-15.05-1.87-14.399,19.65-0.14,17.57c-0.36-2.81-2.021-4.4-2.021-8.72C265.68,117.36,266.83,115.92,267.84,112.61z M202.46,85.39  h-26.92l-0.08,7.71h0.08l0.14,1.36h26.57l0.29-1.36L202.46,85.39z M202.46,85.39h-26.92l-0.08,7.71h0.08l0.14,1.36h26.57l0.29-1.36  L202.46,85.39z M267.84,112.61c-15.05-1.87-14.399,19.65-0.14,17.57c-0.36-2.81-2.021-4.4-2.021-8.72  C265.68,117.36,266.83,115.92,267.84,112.61z M292.39,119.09c-1.08-4.11-5.609-8.14-11.229-6.19c-12.021,4.1-5.47,20.37,5.109,17.13  C290.23,128.81,293.83,124.49,292.39,119.09z M292.39,119.09c-1.08-4.11-5.609-8.14-11.229-6.19c-12.021,4.1-5.47,20.37,5.109,17.13  C290.23,128.81,293.83,124.49,292.39,119.09z M267.84,112.61c-15.05-1.87-14.399,19.65-0.14,17.57c-0.36-2.81-2.021-4.4-2.021-8.72  C265.68,117.36,266.83,115.92,267.84,112.61z M202.46,85.39h-26.92l-0.08,7.71h0.08l0.14,1.36h26.57l0.29-1.36L202.46,85.39z   M202.46,85.39h-26.92l-0.08,7.71h0.08l0.14,1.36h26.57l0.29-1.36L202.46,85.39z M202.46,85.39h-26.92l-0.08,7.71h0.08l0.14,1.36  h26.57l0.29-1.36L202.46,85.39z M202.46,85.39h-26.92l-0.08,7.71h0.08l0.14,1.36h26.57l0.29-1.36L202.46,85.39z M202.46,85.39  h-26.92l-0.08,7.71h0.08l0.14,1.36h26.57l0.29-1.36L202.46,85.39z"/>
</svg>