<?xml version="1.0" encoding="UTF-8"?>
<!-- Generator: Adobe Illustrator 16.0.0, SVG Export Plug-In . SVG Version: 6.00 Build 0)  -->
<!DOCTYPE svg PUBLIC "-//W3C//DTD SVG 1.1//EN" "http://www.w3.org/Graphics/SVG/1.1/DTD/svg11.dtd">
<svg version="1.1" id="Layer_1" xmlns="http://www.w3.org/2000/svg" xmlns:xlink="http://www.w3.org/1999/xlink" x="0px" y="0px" width="360px" height="360px" viewBox="0 0 360 360" enable-background="new 0 0 360 360" xml:space="preserve">
<path fill="#EFEFEF" d="M36,0h288c19.883,0,36,16.118,36,36v288c0,19.882-16.117,36-36,36H36c-19.882,0-36-16.118-36-36V36  C0,16.118,16.118,0,36,0z"/>
<path fill="#1D3F66" d="M91.8,172.152c5.904,0,11.304-2.376,15.264-6.192l21.744,10.872c-0.144,0.864-0.288,1.728-0.288,2.664  c0,12.168,9.864,22.031,22.032,22.031c12.168,0,22.032-9.863,22.032-22.031c0-3.384-0.864-6.552-2.232-9.432l29.52-29.52  c2.88,1.368,6.048,2.232,9.433,2.232c12.168,0,22.031-9.864,22.031-22.032c0-2.304-0.432-4.464-1.08-6.552l25.633-19.224  c3.527,2.304,7.703,3.744,12.168,3.744c12.168,0,22.031-9.864,22.031-22.032s-9.863-22.032-22.031-22.032  s-22.033,9.864-22.033,22.032c0,2.304,0.433,4.464,1.08,6.552l-25.631,19.224c-3.529-2.304-7.705-3.744-12.168-3.744  c-12.168,0-22.033,9.864-22.033,22.032c0,3.384,0.865,6.552,2.232,9.432l-29.52,29.52c-2.88-1.368-6.048-2.232-9.432-2.232  c-5.904,0-11.304,2.376-15.264,6.192l-21.744-10.872c0.144-0.864,0.288-1.728,0.288-2.664c0-12.168-9.864-22.032-22.032-22.032  s-22.032,9.864-22.032,22.032S79.632,172.152,91.8,172.152z M298.008,290.736h-7.848V135.432c0-4.032-3.313-7.344-7.344-7.344  h-29.377c-4.031,0-7.344,3.312-7.344,7.344v155.304h-14.688V179.568c0-4.032-3.313-7.344-7.344-7.344h-29.377  c-4.031,0-7.344,3.312-7.344,7.344v111.168h-14.688V238.32c0-4.032-3.312-7.344-7.344-7.344h-29.376  c-4.032,0-7.344,3.312-7.344,7.344v52.416h-14.688v-81.793c0-4.031-3.312-7.344-7.344-7.344H77.184  c-4.032,0-7.344,3.313-7.344,7.344v81.793h-7.848c-4.032,0-7.344,3.312-7.344,7.344c0,4.031,3.312,7.344,7.344,7.344H298.08  c4.031,0,7.344-3.313,7.344-7.344c0-4.032-3.313-7.344-7.344-7.344l0,0H298.008z"/>
</svg>