<?xml version="1.0" encoding="UTF-8"?>
<!-- Generator: Adobe Illustrator 16.0.0, SVG Export Plug-In . SVG Version: 6.00 Build 0)  -->
<!DOCTYPE svg PUBLIC "-//W3C//DTD SVG 1.1//EN" "http://www.w3.org/Graphics/SVG/1.1/DTD/svg11.dtd">
<svg version="1.1" id="Layer_1" xmlns="http://www.w3.org/2000/svg" xmlns:xlink="http://www.w3.org/1999/xlink" x="0px" y="0px" width="360px" height="360px" viewBox="0 0 360 360" enable-background="new 0 0 360 360" xml:space="preserve">
<path fill="#EFEFEF" d="M36,0h288c19.883,0,36,16.118,36,36v288c0,19.882-16.117,36-36,36H36c-19.882,0-36-16.118-36-36V36  C0,16.118,16.118,0,36,0z"/>
<path fill="#1D3F66" d="M120.456,143.784c0,16.92,11.808,31.032,27.72,34.632c0.504-0.936,0.936-1.728,1.512-2.592  c5.256-7.632,12.312-9,14.688-9.216c0.936-0.072,1.944-0.144,2.88-0.144c3.384,0,8.064,0.648,12.888,3.168  c6.913-6.48,11.232-15.696,11.232-25.848c0-19.584-15.912-35.496-35.496-35.496S120.456,124.2,120.456,143.784z M255.527,194.76  c-2.951-2.304-33.551-36.288-41.832-41.04v-88.2c0-8.928-7.271-16.128-16.127-16.128h-83.232c-8.928,0-16.128,7.272-16.128,16.128  v154.369c0,8.928,7.272,16.127,16.128,16.127h26.712h9.576l-1.512-12.672c-0.504-0.432-0.792-0.72-1.296-1.152h-5.328h-10.656  c0.504-2.159,0.72-4.463,0.288-6.912c-1.152-6.695-6.48-12.023-13.104-13.247c-2.448-0.505-4.824-0.288-7.056,0.216V82.08  c0.936,0.144,1.944,0.288,2.952,0.288c9.072,0,16.344-7.344,16.344-16.344c0-0.936-0.072-1.944-0.288-2.88h49.681  c-0.145,0.936-0.289,1.944-0.289,2.88c0,9.072,7.272,16.344,16.344,16.344c1.008,0,2.017-0.072,2.952-0.288v117.288l0,0v33.696  c-5.688-4.176-11.952-17.209-11.952-17.209s-3.097-34.631-20.664-34.631c-0.504,0-0.936,0-1.368,0.071  c0,0-13.248,1.152-2.304,39.097l4.896,42.191c0,0,5.472,22.896,20.664,38.736V306c0,2.52,2.016,4.608,4.608,4.608h49.319  c2.377,0,4.248-1.729,4.537-4.032c1.728-16.416,8.567-77.473,12.6-86.76c0.648-1.512,1.152-2.953,1.367-4.608  c0.937-5.256,1.225-14.832-5.976-20.448H255.527z M167.544,92.16c0-5.4-4.392-9.792-9.792-9.792s-9.792,4.392-9.792,9.792  c0,5.4,4.392,9.792,9.792,9.792S167.544,97.56,167.544,92.16z M134.712,140.616c2.16,0,2.16,0,2.52-2.16  c0.288-1.656,0.72-3.168,1.368-4.752c0.36-0.864,0.936-1.152,1.8-0.936c1.368,0.36,2.592,0.72,3.96,1.152  c1.224,0.36,1.368,0.792,0.864,1.944c-1.152,2.376-1.656,4.824-1.512,7.488c0.072,0.72,0.072,1.368,0.432,1.944  c1.008,2.304,3.528,2.592,5.04,0.72c0.792-0.936,1.368-2.088,1.8-3.24c0.864-2.016,1.656-4.032,2.664-5.904  c3.384-6.048,11.016-7.704,16.2-3.384c1.872,1.512,3.168,3.6,3.816,5.904c0.288,1.008,0.792,1.512,1.872,1.44  c1.08-0.072,2.088,0,3.168,0c0.936,0,1.44,0.504,1.44,1.368c0.072,1.152,0.072,2.232,0,3.384c0,1.008-0.576,1.44-1.512,1.44  c-0.72,0-1.512,0-2.304,0c-1.728,0-1.728,0.072-2.016,1.728c-0.288,2.088-0.792,4.104-1.728,6.048  c-0.72,1.512-1.152,1.656-2.664,1.224c-1.152-0.288-2.376-0.648-3.456-1.008c-1.368-0.432-1.512-0.792-0.864-2.016  c1.152-2.088,1.728-4.32,2.016-6.696c0.216-1.512,0.072-2.952-0.576-4.392c-1.152-2.592-4.176-3.024-5.976-0.792  c-0.648,0.72-1.08,1.584-1.44,2.52c-1.008,2.304-1.728,4.68-3.024,6.84c-2.088,3.528-4.968,5.688-9.216,5.472  c-4.824-0.288-7.848-3.024-9.432-7.416c-0.648-1.8-0.648-1.8-2.592-1.872c-0.648,0-1.296,0-1.944,0  c-1.44-0.072-1.728-0.288-1.728-1.728c0-0.432,0-0.936,0-1.368c-0.072-2.952-0.072-2.952,2.952-3.024L134.712,140.616z"/>
</svg>