<?xml version="1.0" encoding="UTF-8"?>
<!-- Generator: Adobe Illustrator 16.0.0, SVG Export Plug-In . SVG Version: 6.00 Build 0)  -->
<!DOCTYPE svg PUBLIC "-//W3C//DTD SVG 1.1//EN" "http://www.w3.org/Graphics/SVG/1.1/DTD/svg11.dtd">
<svg version="1.1" id="Layer_1" xmlns="http://www.w3.org/2000/svg" xmlns:xlink="http://www.w3.org/1999/xlink" x="0px" y="0px" width="360px" height="360px" viewBox="0 0 360 360" enable-background="new 0 0 360 360" xml:space="preserve">
<path fill="#EFEFEF" d="M36,0h288c19.883,0,36,16.118,36,36v288c0,19.882-16.117,36-36,36H36c-19.882,0-36-16.118-36-36V36  C0,16.118,16.118,0,36,0z"/>
<path fill="#1D3F66" d="M165.24,54.576h29.592v20.736H165.24V54.576z M157.896,187.344h-14.76v28.08  c0,4.032-3.312,7.344-7.344,7.344h-44.28c-4.032,0-7.344-3.312-7.344-7.344v-28.08h-14.76c-8.136,0-14.76,6.624-14.76,14.76v76.752  h118.08v-76.752c0-8.136-6.624-14.76-14.76-14.76l0,0H157.896z M202.176,305.424h88.488c7.128,0,13.104-5.111,14.473-11.88H187.632  c1.368,6.769,7.345,11.88,14.472,11.88l0,0H202.176z M290.664,187.344h-14.76v28.08c0,4.032-3.313,7.344-7.344,7.344h-44.281  c-4.031,0-7.344-3.312-7.344-7.344v-28.08h-14.76c-8.136,0-14.76,6.624-14.76,14.76v76.752h118.08v-76.752  c0-8.136-6.624-14.76-14.76-14.76l0,0H290.664z M69.408,305.424h88.488c7.128,0,13.104-5.111,14.472-11.88H54.864  c1.368,6.769,7.344,11.88,14.472,11.88H69.408z M239.04,69.408c0-8.136-6.624-14.76-14.761-14.76h-14.76v28.08  c0,4.032-3.312,7.344-7.344,7.344h-44.28c-4.032,0-7.344-3.312-7.344-7.344v-28.08h-14.76c-8.136,0-14.76,6.624-14.76,14.76v76.752  h118.079V69.408H239.04z M98.856,187.416h29.592v20.736H98.856V187.416z M231.624,187.416h29.521v20.736h-29.521V187.416z   M238.752,160.848H121.248c1.368,6.768,7.344,11.88,14.472,11.88h88.488c7.128,0,13.104-5.112,14.472-11.88H238.752z"/>
</svg>