<?xml version="1.0" encoding="UTF-8"?>
<!-- Generator: Adobe Illustrator 16.0.0, SVG Export Plug-In . SVG Version: 6.00 Build 0)  -->
<!DOCTYPE svg PUBLIC "-//W3C//DTD SVG 1.1//EN" "http://www.w3.org/Graphics/SVG/1.1/DTD/svg11.dtd">
<svg version="1.1" id="Layer_1" xmlns="http://www.w3.org/2000/svg" xmlns:xlink="http://www.w3.org/1999/xlink" x="0px" y="0px" width="360px" height="360px" viewBox="0 0 360 360" enable-background="new 0 0 360 360" xml:space="preserve">
<path fill="#EFEFEF" d="M36,0h288c19.883,0,36,16.118,36,36v288c0,19.882-16.117,36-36,36H36c-19.882,0-36-16.118-36-36V36  C0,16.118,16.118,0,36,0z"/>
<path fill="#1D3F66" d="M157.608,187.488h44.785v14.904h-44.785V187.488z M209.809,68.112H150.12  c-12.312,0-22.392,10.008-22.392,22.392v7.488h-62.28L93.6,182.448c1.008,3.024,3.888,5.112,7.056,5.112h41.976v-7.489  c0-4.104,3.312-7.488,7.488-7.488h59.688c4.104,0,7.487,3.312,7.487,7.488v7.489h41.976c3.24,0,6.049-2.017,7.057-5.112  l28.152-84.456H232.2v-7.488C232.2,78.192,222.191,68.112,209.809,68.112z M142.632,97.92v-7.488c0-4.104,3.312-7.488,7.488-7.488  h59.688c4.104,0,7.487,3.312,7.487,7.488v7.488h-74.592H142.632z M259.2,202.393h-41.976v7.487c0,4.104-3.313,7.488-7.488,7.488  h-59.688c-4.104,0-7.488-3.312-7.488-7.488v-7.487h-41.976c-9.648,0-18.144-6.121-21.24-15.265l-26.856-80.496v162.937  c0,12.312,10.008,22.392,22.392,22.392h209.88c12.313,0,22.393-10.008,22.393-22.392V106.632l-26.856,80.496  c-3.024,9.144-11.592,15.265-21.239,15.265l0,0H259.2z"/>
</svg>