<?xml version="1.0" encoding="UTF-8"?>
<!-- Generator: Adobe Illustrator 16.0.0, SVG Export Plug-In . SVG Version: 6.00 Build 0)  -->
<!DOCTYPE svg PUBLIC "-//W3C//DTD SVG 1.1//EN" "http://www.w3.org/Graphics/SVG/1.1/DTD/svg11.dtd">
<svg version="1.1" id="Layer_1" xmlns="http://www.w3.org/2000/svg" xmlns:xlink="http://www.w3.org/1999/xlink" x="0px" y="0px" width="360px" height="360px" viewBox="0 0 360 360" enable-background="new 0 0 360 360" xml:space="preserve">
<path fill="#EFEFEF" d="M36,0h288c19.883,0,36,16.118,36,36v288c0,19.882-16.117,36-36,36H36c-19.882,0-36-16.118-36-36V36  C0,16.118,16.118,0,36,0z"/>
<path fill="#1D3F66" d="M250.848,65.16h-18.072V48.24c0-4.968-4.031-9.072-9.071-9.072h-87.408c-4.968,0-9.072,4.032-9.072,9.072  v16.92h-18.072c-11.664,0-21.096,9.432-21.096,21.096v213.48c0,11.664,9.432,21.096,21.096,21.096h141.624  c11.664,0,21.097-9.432,21.097-21.096V86.256c0-11.664-9.433-21.096-21.097-21.096H250.848z M204.12,86.256V65.16v-7.92h10.584v7.92  v21.096V106.2H204.12V86.256z M145.368,86.256V65.16v-7.92h33.12v7.92v21.096V106.2h-33.12V86.256L145.368,86.256z M150.912,296.136  c0,4.968-4.032,9.072-9.072,9.072h-14.544c-4.968,0-9.072-4.032-9.072-9.072v-15.552c0-4.968,4.032-9.072,9.072-9.072h14.544  c4.968,0,9.072,4.032,9.072,9.072V296.136L150.912,296.136z M150.912,250.704c0,4.968-4.032,9.071-9.072,9.071h-14.544  c-4.968,0-9.072-4.031-9.072-9.071v-15.552c0-4.969,4.032-9.072,9.072-9.072h14.544c4.968,0,9.072,4.031,9.072,9.072V250.704  L150.912,250.704z M150.912,205.271c0,4.969-4.032,9.072-9.072,9.072h-14.544c-4.968,0-9.072-4.031-9.072-9.072V189.72  c0-4.968,4.032-9.071,9.072-9.071h14.544c4.968,0,9.072,4.031,9.072,9.071V205.271L150.912,205.271z M196.344,296.208  c0,4.968-4.031,9.071-9.072,9.071h-14.543c-4.968,0-9.072-4.031-9.072-9.071v-15.552c0-4.969,4.032-9.072,9.072-9.072h14.543  c4.969,0,9.072,4.032,9.072,9.072V296.208z M196.344,250.775c0,4.969-4.031,9.072-9.072,9.072h-14.543  c-4.968,0-9.072-4.031-9.072-9.072v-15.551c0-4.969,4.032-9.072,9.072-9.072h14.543c4.969,0,9.072,4.031,9.072,9.072V250.775z   M196.344,205.344c0,4.969-4.031,9.072-9.072,9.072h-14.543c-4.968,0-9.072-4.032-9.072-9.072v-15.552  c0-4.968,4.032-9.072,9.072-9.072h14.543c4.969,0,9.072,4.032,9.072,9.072V205.344z M241.775,296.279  c0,4.969-4.031,9.072-9.071,9.072H218.16c-4.969,0-9.072-4.031-9.072-9.072v-15.551c0-4.969,4.032-9.072,9.072-9.072h14.544  c4.968,0,9.071,4.031,9.071,9.072V296.279z M241.775,250.848c0,4.969-4.031,9.072-9.071,9.072H218.16  c-4.969,0-9.072-4.031-9.072-9.072v-15.552c0-4.968,4.032-9.071,9.072-9.071h14.544c4.968,0,9.071,4.031,9.071,9.071V250.848z   M241.775,205.416c0,4.968-4.031,9.072-9.071,9.072H218.16c-4.969,0-9.072-4.032-9.072-9.072v-15.552  c0-4.968,4.032-9.072,9.072-9.072h14.544c4.968,0,9.071,4.032,9.071,9.072V205.416z M241.775,152.64  c0,8.496-6.912,15.408-15.479,15.408h-92.664c-8.496,0-15.48-6.912-15.48-15.48v-15.984c0-8.568,6.912-15.48,15.48-15.48h92.664  c8.496,0,15.479,6.912,15.479,15.48v15.984l0,0V152.64z"/>
</svg>