<?xml version="1.0" encoding="UTF-8"?>
<!-- Generator: Adobe Illustrator 16.0.0, SVG Export Plug-In . SVG Version: 6.00 Build 0)  -->
<!DOCTYPE svg PUBLIC "-//W3C//DTD SVG 1.1//EN" "http://www.w3.org/Graphics/SVG/1.1/DTD/svg11.dtd">
<svg version="1.1" id="Layer_1" xmlns="http://www.w3.org/2000/svg" xmlns:xlink="http://www.w3.org/1999/xlink" x="0px" y="0px" width="360px" height="360px" viewBox="0 0 360 360" enable-background="new 0 0 360 360" xml:space="preserve">
<path fill="#EFEFEF" d="M36,0h288c19.883,0,36,16.118,36,36v288c0,19.882-16.117,36-36,36H36c-19.882,0-36-16.118-36-36V36  C0,16.118,16.118,0,36,0z"/>
<path fill="#1D3F66" d="M69.84,50.184V61.56L117,61.632l0.144,15.696h21.744l11.448,53.856c1.656-0.72,4.68-5.184,12.024-9.072  c10.944-5.76,24.121-5.76,35.208-0.144c7.488,3.816,10.584,8.568,12.24,9.216L221.111,77.4l21.744-0.072L243,61.704l47.16-0.144  V45.792H69.84V50.184z M262.656,197.136c-20.952,5.544-11.088,35.784,8.064,30.097c6.983-2.088,13.463-9.504,11.088-18.793  c-1.873-7.344-9.289-13.967-19.225-11.375L262.656,197.136z M219.527,157.68c-0.719,1.656-0.215,12.24-7.199,21.528  c-3.672,4.896-6.191,7.56-10.944,10.656c-1.44,0.936-3.168,1.655-4.392,2.663c0.936,1.152,11.88,6.697,14.04,7.777  c7.272,3.815,4.176,3.672,14.399-1.585l21.385-11.448c1.728-0.936,5.615-2.664,7.127-3.959c-0.504-1.152-14.76-11.448-17.063-13.249  c-2.88-2.16-6.12-4.68-8.64-6.552c-1.44-1.08-3.024-2.232-4.32-3.24c-2.232-1.656-3.384-2.88-4.248-2.592H219.527z M210.672,261.721  c2.016-0.361,24.624-13.753,29.88-16.705c2.664-1.439,7.921-4.176,9.864-5.76c-0.648-1.008-1.872-1.584-2.88-2.304  c-2.808-2.089-5.616-5.257-7.632-8.353c-2.809-4.248-4.465-10.08-4.824-16.56c-2.016,0.288-27.576,13.68-32.04,15.912  c-1.656,0.792-2.231,1.296-3.097,2.952c-1.655,3.312,2.809,10.656,4.248,13.031c3.024,4.896,5.113,11.305,6.48,17.856V261.721z   M176.904,133.704c-12.312,1.944-22.248,12.456-20.232,26.568c1.728,12.384,12.96,21.744,26.641,20.016  c12.455-1.584,21.455-12.816,19.943-26.568C201.96,141.84,190.008,131.688,176.904,133.704z M99.864,231.408l-14.328,0.072  c0,7.199-0.216,12.023,1.656,18.504c2.304,7.848,5.04,9.504,6.912,13.176c0.72,1.367,1.656,5.976,2.304,7.775  c0.648,1.801,2.88,5.977,3.096,6.912c0.432,2.16-5.904,10.152-6.552,13.032c1.728,1.44,7.128,4.32,9.288,5.399  c11.448,5.617,18.864,2.089,25.416,4.104c13.968,4.248,10.368-2.808,16.416,7.704c1.008,1.8,2.736,4.464,3.384,6.264  c2.592-0.647,9.504-5.256,11.088-6.479c4.896-3.744,9.144-9.072,11.592-14.832c1.584-3.744,3.744-4.104,7.92-9.647  c1.08-1.44,2.448-3.816,3.528-5.041l14.111-0.072c0.217-10.439,0-16.92-4.68-25.631c-1.151-2.16-3.023-4.248-3.959-6.049  c-0.793-1.584-1.513-5.76-2.305-7.775c-0.504-1.297-2.952-6.48-3.023-6.912c-0.36-2.088,6.047-10.08,6.623-13.104  c-7.775-3.601-9.144-6.841-21.456-8.496c-2.232-0.289-4.608-0.36-6.912-0.145c-3.888,0.432-2.952,0.359-6.408-0.648  c-2.376-0.72-12.384-1.871-12.96-2.16l-7.056-11.735c-2.088,0.36-9.072,4.968-10.944,6.336c-5.112,3.96-8.856,8.712-11.448,14.472  c-1.656,3.672-1.44,2.736-3.816,5.041c-2.736,2.592-5.112,6.119-7.632,9.863L99.864,231.408z"/>
</svg>