<?xml version="1.0" encoding="UTF-8"?>
<!-- Generator: Adobe Illustrator 16.0.0, SVG Export Plug-In . SVG Version: 6.00 Build 0)  -->
<!DOCTYPE svg PUBLIC "-//W3C//DTD SVG 1.1//EN" "http://www.w3.org/Graphics/SVG/1.1/DTD/svg11.dtd">
<svg version="1.1" id="Layer_1" xmlns="http://www.w3.org/2000/svg" xmlns:xlink="http://www.w3.org/1999/xlink" x="0px" y="0px" width="360px" height="360px" viewBox="0 0 360 360" enable-background="new 0 0 360 360" xml:space="preserve">
<path fill="#EFEFEF" d="M36,0h288c19.883,0,36,16.118,36,36v288c0,19.882-16.117,36-36,36H36c-19.882,0-36-16.118-36-36V36  C0,16.118,16.118,0,36,0z"/>
<path fill="#1D3F66" d="M86.04,209.59l-31.68-0.859c-0.36,13.68-0.72,27.14-1.08,40.68c-0.14,5.97-1.73,37.01-0.86,40.17l31.6,0.87  c0.36-13.681,0.8-27.15,1.16-40.681C85.32,243.5,86.98,213.19,86.04,209.59z M93.38,280.01h0.08v-0.029  C93.43,279.99,93.41,280,93.38,280.01z M292.1,227.02c-4.819,1.29-37.439,17.711-45.069,21.021c1.59,13.82,0.79,11.59-25.63,10.87  c-12.67-0.36-25.271-0.72-37.94-1.01c-9.29-0.21-7.13-8.42-2.16-9c4.24-0.5,14.11,0.29,18.931,0.439c12.6,0.36,25.35,0.86,37.869,1  c-1.29-8.28-6.909-14.25-12.96-17.13c-10.51-4.97-39.6-1.01-56.3-4.54c-8.57-1.8-13.9-6.12-21.46-8.93  c-16.84-6.26-34.92-4.391-49.17,3.96c-1.87,1.08-3.24,1.37-3.39,4.04c-0.14,2.37-0.07,4.96-0.14,7.41l-1.22,44.83  c2-0.73,4.41-2.211,6.26-3.141c8.57-4.18,14.4-4.25,23.47-1.58l59.26,16.561c10.729,2.88,23.109,1.8,32.97-1.66  c7.2-2.521,27.51-16.63,35.28-21.601c3.75-2.38,7.85-4.899,11.52-7.42l34.561-22.319c1.88-1.221,3.68-2.44,5.62-3.67  c1.869-1.15,4.1-2.45,5.619-3.74C305.14,227.81,298.58,225.29,292.1,227.02z"/>
<path fill="#1D3F66" d="M249.19,125.5c-3.24-33.92-33.551-62.28-71.71-58.47v-0.07c-33.48,3.38-61.78,33.55-58.1,71.35  c1.29,13.11,6.62,25.35,14.25,34.78c12.46,15.41,34.27,26.28,57.601,23.69C224.64,193.1,252.79,163.51,249.19,125.5z M206.05,161.95  c-3.17,7.85-7.78,10.8-16.27,13.61c0,2.88,1.08,10.22-4.9,9.79c-4.82-0.359-4.1-5.609-4.1-10.08c-6.56-2.45-11.24-5.25-14.26-12.24  c-1.01-2.37-2.66-8.13-1.37-10.73c1.59-3.16,6.55-3.16,8.14,0c1.65,3.39-0.22,5.55,3.31,9.94c6.84,8.64,22.61,4.03,22.03-8.28  c-0.36-9.36-7.13-11.45-14.47-12.02c-14.04-1.08-23.76-16.28-17.42-30.39c2.88-6.48,6.98-9.14,14.109-11.88  c0-4.46-0.72-10.29,4.891-9.86c6.84,0.57,2.02,8.35,4.97,9.93c2.38,1.37,11.74,2.24,15.771,14.19c1.3,4.03,2.09,10.01-2.301,10.94  c-6.199,1.3-5.12-4.89-6.41-8.49c-2.449-7.06-12.529-11.45-19.51-5.19c-6.77,6.05-5.48,15.63,1.36,19.8  c4.25,2.59,7.35,1.44,12.24,2.74C203.17,136.75,210.87,150.14,206.05,161.95z"/>
</svg>