<?xml version="1.0" encoding="UTF-8"?>
<!-- Generator: Adobe Illustrator 16.0.0, SVG Export Plug-In . SVG Version: 6.00 Build 0)  -->
<!DOCTYPE svg PUBLIC "-//W3C//DTD SVG 1.1//EN" "http://www.w3.org/Graphics/SVG/1.1/DTD/svg11.dtd">
<svg version="1.1" id="Layer_1" xmlns="http://www.w3.org/2000/svg" xmlns:xlink="http://www.w3.org/1999/xlink" x="0px" y="0px" width="360px" height="360px" viewBox="0 0 360 360" enable-background="new 0 0 360 360" xml:space="preserve">
<path fill="#EFEFEF" d="M36,0h288c19.883,0,36,16.118,36,36v288c0,19.882-16.117,36-36,36H36c-19.882,0-36-16.118-36-36V36  C0,16.118,16.118,0,36,0z"/>
<path fill="#1D3F66" d="M126,224.424c0-3.384-2.952-6.048-6.552-6.048c-3.672,0-6.552,2.735-6.552,6.048  c0,3.385,2.952,6.049,6.552,6.049C123.12,230.473,126,227.736,126,224.424z M203.977,142.128h-52.632c-2.376,0-4.32-1.944-4.32-4.32  s1.944-4.32,4.32-4.32h47.88c-4.177-9.072-6.336-19.008-6.336-29.016c0-4.824,0.504-9.648,1.512-14.4h-117l-1.152,170.784h109.656  c1.08-0.071,2.16,0.36,2.951,1.152c0.793,0.792,1.225,1.872,1.152,2.952v22.032c0.072,16.416,13.393,29.735,29.881,29.808h0.071  c16.416,0,29.664-13.319,29.664-29.735V173.52c-18.937-3.6-35.424-14.904-45.647-31.248l0,0V142.128z M119.448,239.256  c-8.424,0-15.264-6.624-15.264-14.76c0-8.137,6.84-14.76,15.264-14.76c8.424,0,15.264,6.623,15.264,14.76  C134.712,232.632,127.872,239.256,119.448,239.256z M119.448,196.057c-8.424,0-15.264-6.625-15.264-14.761s6.84-14.76,15.264-14.76  c8.424,0,15.264,6.624,15.264,14.76S127.872,196.057,119.448,196.057z M119.448,152.856c-8.424,0-15.264-6.624-15.264-14.76  c0-8.136,6.84-14.76,15.264-14.76c8.424,0,15.264,6.624,15.264,14.76C134.712,146.232,127.872,152.856,119.448,152.856z   M217.584,229.032h-66.24c-2.376,0-4.32-1.944-4.32-4.32s1.944-4.319,4.32-4.319h66.24c2.376,0,4.32,1.943,4.32,4.319  S219.96,229.032,217.584,229.032z M221.904,181.225c0,2.375-1.944,4.319-4.32,4.319h-66.24c-2.376,0-4.32-1.944-4.32-4.319  c0-2.376,1.944-4.321,4.32-4.321h66.24C219.96,176.904,221.904,178.848,221.904,181.225L221.904,181.225z M192.6,313.992  c-7.271-7.2-11.304-16.992-11.304-27.145v-17.424H36v17.496c0.072,16.416,13.392,29.664,29.808,29.736h129.744  c-1.079-0.792-2.088-1.656-2.952-2.592V313.992z M262.729,43.416c-33.84,0-61.201,27.432-61.201,61.2  c0,33.84,27.433,61.2,61.201,61.2c33.84,0,61.199-27.432,61.199-61.2C323.855,70.848,296.496,43.416,262.729,43.416z   M262.439,100.224c10.513,0,19.297,7.992,20.305,18.432c1.008,10.44-6.12,20.016-16.416,21.96v5.76c0,2.376-1.944,4.32-4.32,4.32  s-4.32-1.944-4.32-4.32v-5.904c-9.144-2.232-15.551-10.44-15.623-19.8c0-2.376,1.943-4.32,4.319-4.32s4.32,1.944,4.32,4.32  c0,6.48,5.256,11.736,11.735,11.736c6.48,0,11.736-5.256,11.736-11.736s-5.256-11.736-11.736-11.736  c-10.367,0-19.008-7.704-20.231-18s5.399-19.8,15.479-22.248v-5.472c0-2.376,1.944-4.32,4.32-4.32s4.32,1.944,4.32,4.32v5.256  c9.576,1.872,16.488,10.296,16.561,20.016c0,2.376-1.945,4.32-4.32,4.32c-2.377,0-4.32-1.944-4.32-4.32  c0-6.408-5.111-11.592-11.52-11.736c-0.217,0-0.433,0.072-0.648,0.072c-0.145,0-0.288,0-0.432,0  c-6.265,0.504-11.088,5.832-10.801,12.096c0.217,6.264,5.4,11.304,11.736,11.304l0,0H262.439z M126,138.024  c0-3.384-2.952-6.048-6.552-6.048c-3.672,0-6.552,2.736-6.552,6.048c0,3.384,2.952,6.048,6.552,6.048  C123.12,144.072,126,141.336,126,138.024z M119.448,175.104c-3.6,0-6.552,2.736-6.552,6.048c0,3.384,2.952,6.048,6.552,6.048  c3.6,0,6.624-2.736,6.624-6.048C126.072,177.768,123.12,175.104,119.448,175.104z"/>
</svg>